<mxfile host="drawio-plugin" modified="2022-08-14T09:56:32.427Z" agent="5.0 (X11; Linux x86_64) AppleWebKit/537.36 (KHTML, like Gecko) Chrome/89.0.4389.114 Safari/537.36" etag="-ndnZKgJZR7CzBqfnhVO" version="15.5.4" type="embed"><diagram id="23iRSUPoRavnBvh4doch" name="Page-1"><mxGraphModel dx="9175" dy="9436" grid="1" gridSize="9" guides="1" tooltips="1" connect="1" arrows="1" fold="1" page="1" pageScale="1" pageWidth="827" pageHeight="1169" background="#ffffff" math="0" shadow="0"><root><mxCell id="0"/><mxCell id="1" parent="0"/><mxCell id="3" value="" style="rounded=0;whiteSpace=wrap;html=1;fillColor=#CCCCFF;" vertex="1" parent="1"><mxGeometry x="-3069" y="-3708" width="6462" height="5827" as="geometry"/></mxCell><mxCell id="14" style="edgeStyle=orthogonalEdgeStyle;rounded=0;orthogonalLoop=1;jettySize=auto;html=1;fontSize=65;fontColor=#000000;strokeColor=#000000;strokeWidth=6;" edge="1" parent="1" source="5" target="10"><mxGeometry relative="1" as="geometry"/></mxCell><mxCell id="28" style="edgeStyle=orthogonalEdgeStyle;rounded=0;orthogonalLoop=1;jettySize=auto;html=1;entryX=0.5;entryY=0;entryDx=0;entryDy=0;fontSize=65;fontColor=#000000;strokeColor=#000000;strokeWidth=9;exitX=0.5;exitY=1;exitDx=0;exitDy=0;" edge="1" parent="1" source="5" target="17"><mxGeometry relative="1" as="geometry"/></mxCell><mxCell id="37" style="edgeStyle=orthogonalEdgeStyle;rounded=0;orthogonalLoop=1;jettySize=auto;html=1;entryX=0.5;entryY=0;entryDx=0;entryDy=0;fontSize=65;fontColor=#000000;strokeColor=#000000;strokeWidth=9;" edge="1" parent="1" source="5" target="31"><mxGeometry relative="1" as="geometry"/></mxCell><mxCell id="40" style="edgeStyle=orthogonalEdgeStyle;rounded=0;orthogonalLoop=1;jettySize=auto;html=1;fontSize=65;fontColor=#000000;strokeColor=#000000;strokeWidth=9;exitX=0.5;exitY=1;exitDx=0;exitDy=0;" edge="1" parent="1" source="5" target="38"><mxGeometry relative="1" as="geometry"/></mxCell><mxCell id="56" style="edgeStyle=orthogonalEdgeStyle;rounded=0;orthogonalLoop=1;jettySize=auto;html=1;entryX=0.5;entryY=0;entryDx=0;entryDy=0;fontSize=65;fontColor=#000000;strokeColor=#000000;strokeWidth=9;exitX=0.5;exitY=1;exitDx=0;exitDy=0;" edge="1" parent="1" source="5" target="49"><mxGeometry relative="1" as="geometry"/></mxCell><mxCell id="5" value="&lt;font style=&quot;font-size: 65px&quot; color=&quot;#000000&quot;&gt;Главная &lt;font style=&quot;font-size: 65px&quot;&gt;страница&lt;/font&gt;&lt;/font&gt;" style="rounded=0;whiteSpace=wrap;html=1;fillColor=#FFFFFF;" vertex="1" parent="1"><mxGeometry x="-1422" y="-3087" width="642" height="176" as="geometry"/></mxCell><mxCell id="10" value="&lt;font color=&quot;#000000&quot;&gt;&lt;span style=&quot;font-size: 65px&quot;&gt;Личный кабинет&lt;/span&gt;&lt;/font&gt;" style="rounded=0;whiteSpace=wrap;html=1;fillColor=#f8cecc;strokeColor=#b85450;" vertex="1" parent="1"><mxGeometry x="207" y="-2813" width="642" height="176" as="geometry"/></mxCell><mxCell id="11" value="&lt;font color=&quot;#000000&quot;&gt;&lt;span style=&quot;font-size: 65px&quot;&gt;Регистрация&lt;/span&gt;&lt;/font&gt;" style="rounded=0;whiteSpace=wrap;html=1;fillColor=#f8cecc;strokeColor=#b85450;" vertex="1" parent="1"><mxGeometry x="1053" y="-2813" width="642" height="176" as="geometry"/></mxCell><mxCell id="16" style="edgeStyle=orthogonalEdgeStyle;rounded=0;orthogonalLoop=1;jettySize=auto;html=1;fontSize=65;fontColor=#000000;strokeColor=#000000;strokeWidth=6;exitX=1;exitY=0.5;exitDx=0;exitDy=0;" edge="1" parent="1" source="5" target="11"><mxGeometry relative="1" as="geometry"><mxPoint x="210" y="-668" as="sourcePoint"/><mxPoint x="816" y="-522" as="targetPoint"/></mxGeometry></mxCell><mxCell id="23" style="edgeStyle=orthogonalEdgeStyle;rounded=0;orthogonalLoop=1;jettySize=auto;html=1;entryX=0;entryY=0.5;entryDx=0;entryDy=0;fontSize=65;fontColor=#000000;strokeColor=#000000;strokeWidth=9;" edge="1" parent="1" source="17" target="18"><mxGeometry relative="1" as="geometry"/></mxCell><mxCell id="24" style="edgeStyle=orthogonalEdgeStyle;rounded=0;orthogonalLoop=1;jettySize=auto;html=1;entryX=0;entryY=0.5;entryDx=0;entryDy=0;fontSize=65;fontColor=#000000;strokeColor=#000000;strokeWidth=9;" edge="1" parent="1" source="17" target="19"><mxGeometry relative="1" as="geometry"/></mxCell><mxCell id="25" style="edgeStyle=orthogonalEdgeStyle;rounded=0;orthogonalLoop=1;jettySize=auto;html=1;entryX=0;entryY=0.5;entryDx=0;entryDy=0;fontSize=65;fontColor=#000000;strokeColor=#000000;strokeWidth=9;" edge="1" parent="1" source="17" target="20"><mxGeometry relative="1" as="geometry"/></mxCell><mxCell id="26" style="edgeStyle=orthogonalEdgeStyle;rounded=0;orthogonalLoop=1;jettySize=auto;html=1;entryX=0;entryY=0.5;entryDx=0;entryDy=0;fontSize=65;fontColor=#000000;strokeColor=#000000;strokeWidth=9;" edge="1" parent="1" source="17" target="21"><mxGeometry relative="1" as="geometry"/></mxCell><mxCell id="27" style="edgeStyle=orthogonalEdgeStyle;rounded=0;orthogonalLoop=1;jettySize=auto;html=1;exitX=0.5;exitY=1;exitDx=0;exitDy=0;entryX=0;entryY=0.5;entryDx=0;entryDy=0;fontSize=65;fontColor=#000000;strokeColor=#000000;strokeWidth=9;" edge="1" parent="1" source="17" target="22"><mxGeometry relative="1" as="geometry"/></mxCell><mxCell id="17" value="&lt;font color=&quot;#000000&quot;&gt;&lt;span style=&quot;font-size: 65px&quot;&gt;Рыба&lt;/span&gt;&lt;/font&gt;" style="rounded=0;whiteSpace=wrap;html=1;fillColor=#60a917;fontColor=#ffffff;strokeColor=#2D7600;" vertex="1" parent="1"><mxGeometry x="-2853" y="-1753" width="642" height="176" as="geometry"/></mxCell><mxCell id="18" value="&lt;font color=&quot;#000000&quot;&gt;&lt;span style=&quot;font-size: 65px&quot;&gt;Холодное копчение&lt;/span&gt;&lt;/font&gt;" style="rounded=0;whiteSpace=wrap;html=1;fillColor=#fff2cc;strokeColor=#d6b656;" vertex="1" parent="1"><mxGeometry x="-2340" y="-1458" width="702" height="176" as="geometry"/></mxCell><mxCell id="19" value="&lt;font color=&quot;#000000&quot;&gt;&lt;span style=&quot;font-size: 65px&quot;&gt;Горячее копчение&lt;/span&gt;&lt;/font&gt;" style="rounded=0;whiteSpace=wrap;html=1;fillColor=#fff2cc;strokeColor=#d6b656;" vertex="1" parent="1"><mxGeometry x="-2340" y="-1197" width="702" height="176" as="geometry"/></mxCell><mxCell id="20" value="&lt;font color=&quot;#000000&quot;&gt;&lt;span style=&quot;font-size: 65px&quot;&gt;Вяленая&lt;/span&gt;&lt;/font&gt;" style="rounded=0;whiteSpace=wrap;html=1;fillColor=#fff2cc;strokeColor=#d6b656;" vertex="1" parent="1"><mxGeometry x="-2340" y="-936" width="702" height="176" as="geometry"/></mxCell><mxCell id="21" value="&lt;font color=&quot;#000000&quot;&gt;&lt;span style=&quot;font-size: 65px&quot;&gt;Замороженная&lt;/span&gt;&lt;/font&gt;" style="rounded=0;whiteSpace=wrap;html=1;fillColor=#fff2cc;strokeColor=#d6b656;" vertex="1" parent="1"><mxGeometry x="-2340" y="-639" width="702" height="176" as="geometry"/></mxCell><mxCell id="22" value="&lt;font color=&quot;#000000&quot;&gt;&lt;span style=&quot;font-size: 65px&quot;&gt;Пресервы&lt;/span&gt;&lt;/font&gt;" style="rounded=0;whiteSpace=wrap;html=1;fillColor=#fff2cc;strokeColor=#d6b656;" vertex="1" parent="1"><mxGeometry x="-2340" y="-369" width="702" height="176" as="geometry"/></mxCell><mxCell id="35" style="edgeStyle=orthogonalEdgeStyle;rounded=0;orthogonalLoop=1;jettySize=auto;html=1;entryX=0;entryY=0.5;entryDx=0;entryDy=0;fontSize=65;fontColor=#000000;strokeColor=#000000;strokeWidth=9;" edge="1" parent="1" source="31" target="32"><mxGeometry relative="1" as="geometry"/></mxCell><mxCell id="36" style="edgeStyle=orthogonalEdgeStyle;rounded=0;orthogonalLoop=1;jettySize=auto;html=1;entryX=0;entryY=0.5;entryDx=0;entryDy=0;fontSize=65;fontColor=#000000;strokeColor=#000000;strokeWidth=9;" edge="1" parent="1" source="31" target="33"><mxGeometry relative="1" as="geometry"/></mxCell><mxCell id="31" value="&lt;font color=&quot;#000000&quot;&gt;&lt;span style=&quot;font-size: 65px&quot;&gt;Икра&lt;/span&gt;&lt;/font&gt;" style="rounded=0;whiteSpace=wrap;html=1;fillColor=#60a917;fontColor=#ffffff;strokeColor=#2D7600;" vertex="1" parent="1"><mxGeometry x="-1422" y="-1753" width="642" height="176" as="geometry"/></mxCell><mxCell id="32" value="&lt;font color=&quot;#000000&quot;&gt;&lt;span style=&quot;font-size: 65px&quot;&gt;Красная&lt;/span&gt;&lt;/font&gt;" style="rounded=0;whiteSpace=wrap;html=1;fillColor=#fff2cc;strokeColor=#d6b656;" vertex="1" parent="1"><mxGeometry x="-918" y="-1458" width="702" height="176" as="geometry"/></mxCell><mxCell id="33" value="&lt;font color=&quot;#000000&quot;&gt;&lt;span style=&quot;font-size: 65px&quot;&gt;Черная&lt;/span&gt;&lt;/font&gt;" style="rounded=0;whiteSpace=wrap;html=1;fillColor=#fff2cc;strokeColor=#d6b656;" vertex="1" parent="1"><mxGeometry x="-918" y="-1197" width="702" height="176" as="geometry"/></mxCell><mxCell id="45" style="edgeStyle=orthogonalEdgeStyle;rounded=0;orthogonalLoop=1;jettySize=auto;html=1;entryX=0;entryY=0.5;entryDx=0;entryDy=0;fontSize=65;fontColor=#000000;strokeColor=#000000;strokeWidth=9;" edge="1" parent="1" source="38" target="41"><mxGeometry relative="1" as="geometry"/></mxCell><mxCell id="46" style="edgeStyle=orthogonalEdgeStyle;rounded=0;orthogonalLoop=1;jettySize=auto;html=1;entryX=0;entryY=0.5;entryDx=0;entryDy=0;fontSize=65;fontColor=#000000;strokeColor=#000000;strokeWidth=9;" edge="1" parent="1" source="38" target="42"><mxGeometry relative="1" as="geometry"/></mxCell><mxCell id="47" style="edgeStyle=orthogonalEdgeStyle;rounded=0;orthogonalLoop=1;jettySize=auto;html=1;entryX=0;entryY=0.5;entryDx=0;entryDy=0;fontSize=65;fontColor=#000000;strokeColor=#000000;strokeWidth=9;" edge="1" parent="1" source="38" target="43"><mxGeometry relative="1" as="geometry"/></mxCell><mxCell id="48" style="edgeStyle=orthogonalEdgeStyle;rounded=0;orthogonalLoop=1;jettySize=auto;html=1;entryX=0;entryY=0.5;entryDx=0;entryDy=0;fontSize=65;fontColor=#000000;strokeColor=#000000;strokeWidth=9;" edge="1" parent="1" source="38" target="44"><mxGeometry relative="1" as="geometry"/></mxCell><mxCell id="55" style="edgeStyle=orthogonalEdgeStyle;rounded=0;orthogonalLoop=1;jettySize=auto;html=1;entryX=0;entryY=0.5;entryDx=0;entryDy=0;fontSize=65;fontColor=#000000;strokeColor=#000000;strokeWidth=9;" edge="1" parent="1" source="38" target="54"><mxGeometry relative="1" as="geometry"/></mxCell><mxCell id="38" value="&lt;font color=&quot;#000000&quot;&gt;&lt;span style=&quot;font-size: 65px&quot;&gt;Бакалея&lt;/span&gt;&lt;/font&gt;" style="rounded=0;whiteSpace=wrap;html=1;fillColor=#60a917;fontColor=#ffffff;strokeColor=#2D7600;" vertex="1" parent="1"><mxGeometry x="45" y="-1753" width="642" height="176" as="geometry"/></mxCell><mxCell id="41" value="&lt;font color=&quot;#000000&quot;&gt;&lt;span style=&quot;font-size: 65px&quot;&gt;Консервы&lt;/span&gt;&lt;/font&gt;" style="rounded=0;whiteSpace=wrap;html=1;fillColor=#fff2cc;strokeColor=#d6b656;" vertex="1" parent="1"><mxGeometry x="504" y="-1458" width="702" height="176" as="geometry"/></mxCell><mxCell id="42" value="&lt;font color=&quot;#000000&quot;&gt;&lt;span style=&quot;font-size: 65px&quot;&gt;Салаты&lt;/span&gt;&lt;/font&gt;" style="rounded=0;whiteSpace=wrap;html=1;fillColor=#fff2cc;strokeColor=#d6b656;" vertex="1" parent="1"><mxGeometry x="504" y="-1197" width="702" height="176" as="geometry"/></mxCell><mxCell id="43" value="&lt;font color=&quot;#000000&quot;&gt;&lt;span style=&quot;font-size: 65px&quot;&gt;Масло&lt;/span&gt;&lt;/font&gt;" style="rounded=0;whiteSpace=wrap;html=1;fillColor=#fff2cc;strokeColor=#d6b656;" vertex="1" parent="1"><mxGeometry x="513" y="-936" width="702" height="176" as="geometry"/></mxCell><mxCell id="44" value="&lt;font color=&quot;#000000&quot;&gt;&lt;span style=&quot;font-size: 65px&quot;&gt;Макароны&lt;/span&gt;&lt;/font&gt;" style="rounded=0;whiteSpace=wrap;html=1;fillColor=#fff2cc;strokeColor=#d6b656;" vertex="1" parent="1"><mxGeometry x="504" y="-672.5" width="702" height="176" as="geometry"/></mxCell><mxCell id="57" style="edgeStyle=orthogonalEdgeStyle;rounded=0;orthogonalLoop=1;jettySize=auto;html=1;entryX=0;entryY=0.5;entryDx=0;entryDy=0;fontSize=65;fontColor=#000000;strokeColor=#000000;strokeWidth=9;" edge="1" parent="1" source="49" target="50"><mxGeometry relative="1" as="geometry"/></mxCell><mxCell id="58" style="edgeStyle=orthogonalEdgeStyle;rounded=0;orthogonalLoop=1;jettySize=auto;html=1;entryX=0;entryY=0.5;entryDx=0;entryDy=0;fontSize=65;fontColor=#000000;strokeColor=#000000;strokeWidth=9;" edge="1" parent="1" source="49" target="51"><mxGeometry relative="1" as="geometry"/></mxCell><mxCell id="59" style="edgeStyle=orthogonalEdgeStyle;rounded=0;orthogonalLoop=1;jettySize=auto;html=1;entryX=0;entryY=0.5;entryDx=0;entryDy=0;fontSize=65;fontColor=#000000;strokeColor=#000000;strokeWidth=9;" edge="1" parent="1" source="49" target="52"><mxGeometry relative="1" as="geometry"/></mxCell><mxCell id="60" style="edgeStyle=orthogonalEdgeStyle;rounded=0;orthogonalLoop=1;jettySize=auto;html=1;entryX=0;entryY=0.5;entryDx=0;entryDy=0;fontSize=65;fontColor=#000000;strokeColor=#000000;strokeWidth=9;" edge="1" parent="1" source="49" target="53"><mxGeometry relative="1" as="geometry"/></mxCell><mxCell id="49" value="&lt;font color=&quot;#000000&quot;&gt;&lt;span style=&quot;font-size: 65px&quot;&gt;Мясо&lt;/span&gt;&lt;/font&gt;" style="rounded=0;whiteSpace=wrap;html=1;fillColor=#60a917;fontColor=#ffffff;strokeColor=#2D7600;" vertex="1" parent="1"><mxGeometry x="1557" y="-1753" width="642" height="176" as="geometry"/></mxCell><mxCell id="50" value="&lt;font color=&quot;#000000&quot;&gt;&lt;span style=&quot;font-size: 65px&quot;&gt;Копченая колабаса&lt;/span&gt;&lt;/font&gt;" style="rounded=0;whiteSpace=wrap;html=1;fillColor=#fff2cc;strokeColor=#d6b656;" vertex="1" parent="1"><mxGeometry x="2043" y="-1458" width="702" height="176" as="geometry"/></mxCell><mxCell id="51" value="&lt;font color=&quot;#000000&quot;&gt;&lt;span style=&quot;font-size: 65px&quot;&gt;Вареная колбаса&lt;/span&gt;&lt;/font&gt;" style="rounded=0;whiteSpace=wrap;html=1;fillColor=#fff2cc;strokeColor=#d6b656;" vertex="1" parent="1"><mxGeometry x="2043" y="-1197" width="702" height="176" as="geometry"/></mxCell><mxCell id="52" value="&lt;font color=&quot;#000000&quot;&gt;&lt;span style=&quot;font-size: 65px&quot;&gt;Грудинка&lt;/span&gt;&lt;/font&gt;" style="rounded=0;whiteSpace=wrap;html=1;fillColor=#fff2cc;strokeColor=#d6b656;" vertex="1" parent="1"><mxGeometry x="2043" y="-936" width="702" height="176" as="geometry"/></mxCell><mxCell id="53" value="&lt;font color=&quot;#000000&quot;&gt;&lt;span style=&quot;font-size: 65px&quot;&gt;Филе&lt;/span&gt;&lt;/font&gt;" style="rounded=0;whiteSpace=wrap;html=1;fillColor=#fff2cc;strokeColor=#d6b656;" vertex="1" parent="1"><mxGeometry x="2043" y="-672.5" width="702" height="176" as="geometry"/></mxCell><mxCell id="54" value="&lt;font color=&quot;#000000&quot;&gt;&lt;span style=&quot;font-size: 65px&quot;&gt;Сухарики&lt;/span&gt;&lt;/font&gt;" style="rounded=0;whiteSpace=wrap;html=1;fillColor=#fff2cc;strokeColor=#d6b656;" vertex="1" parent="1"><mxGeometry x="513" y="-369" width="702" height="176" as="geometry"/></mxCell></root></mxGraphModel></diagram></mxfile>